<mxfile host="app.diagrams.net" agent="Mozilla/5.0 (Windows NT 10.0; Win64; x64; rv:140.0) Gecko/20100101 Firefox/140.0" version="28.0.3">
  <diagram name="PÃ¡gina-1" id="qFsdDP8MJ4EGLzktBLl0">
    <mxGraphModel dx="1507" dy="2025" grid="1" gridSize="10" guides="1" tooltips="1" connect="1" arrows="1" fold="1" page="1" pageScale="1" pageWidth="827" pageHeight="1169" math="0" shadow="0">
      <root>
        <mxCell id="0" />
        <mxCell id="1" parent="0" />
        <mxCell id="Agw1DdUP6BiHVhbd0GuQ-39" style="edgeStyle=orthogonalEdgeStyle;rounded=0;orthogonalLoop=1;jettySize=auto;html=1;exitX=0.5;exitY=0;exitDx=0;exitDy=0;entryX=0.5;entryY=0;entryDx=0;entryDy=0;" edge="1" parent="1" source="Agw1DdUP6BiHVhbd0GuQ-1" target="Agw1DdUP6BiHVhbd0GuQ-26">
          <mxGeometry relative="1" as="geometry" />
        </mxCell>
        <mxCell id="Agw1DdUP6BiHVhbd0GuQ-1" value="Abstract Usuario" style="swimlane;fontStyle=1;align=center;verticalAlign=top;childLayout=stackLayout;horizontal=1;startSize=26;horizontalStack=0;resizeParent=1;resizeParentMax=0;resizeLast=0;collapsible=1;marginBottom=0;whiteSpace=wrap;html=1;" vertex="1" parent="1">
          <mxGeometry x="294" y="80" width="240" height="400" as="geometry" />
        </mxCell>
        <mxCell id="Agw1DdUP6BiHVhbd0GuQ-2" value="- codigo: int&lt;br&gt;- nome: String&lt;br&gt;- tipo: TipoUsuario&lt;br&gt;- emprestimosAtivos: List&amp;lt;Emprestimo&amp;gt;&lt;br&gt;- reservasAtivas: List&amp;lt;Reserva&amp;gt;&lt;br&gt;- devedor: boolean&lt;br&gt;- qntdEmprestimos: int" style="text;strokeColor=none;fillColor=none;align=left;verticalAlign=top;spacingLeft=4;spacingRight=4;overflow=hidden;rotatable=0;points=[[0,0.5],[1,0.5]];portConstraint=eastwest;whiteSpace=wrap;html=1;" vertex="1" parent="Agw1DdUP6BiHVhbd0GuQ-1">
          <mxGeometry y="26" width="240" height="144" as="geometry" />
        </mxCell>
        <mxCell id="Agw1DdUP6BiHVhbd0GuQ-3" value="" style="line;strokeWidth=1;fillColor=none;align=left;verticalAlign=middle;spacingTop=-1;spacingLeft=3;spacingRight=3;rotatable=0;labelPosition=right;points=[];portConstraint=eastwest;strokeColor=inherit;" vertex="1" parent="Agw1DdUP6BiHVhbd0GuQ-1">
          <mxGeometry y="170" width="240" height="8" as="geometry" />
        </mxCell>
        <mxCell id="Agw1DdUP6BiHVhbd0GuQ-4" value="+ Usuario(codigo: int, nome: String, tipo: TipoUsuario)&lt;br&gt;+ getCodigo(): int&lt;br&gt;+ getNome(): String&lt;br&gt;+ getTipo(): TipoUsuario&lt;br&gt;+ getReservasAtivas(): List&amp;lt;Reserva&amp;gt;&lt;br&gt;+ isDevedor(): boolean&lt;br&gt;+ setDevedor(boolean): void&lt;br&gt;+ getEmprestimosAtivos(): List&amp;lt;Emprestimo&amp;gt;&lt;br&gt;+ adicionarEmprestimo(Emprestimo): void&lt;br&gt;+ removerEmprestimo(Emprestimo): void&lt;br&gt;+ atingiuLimiteEmprestimos(): boolean&lt;br&gt;+ getPrazoDevolucaoDias(): int" style="text;strokeColor=none;fillColor=none;align=left;verticalAlign=top;spacingLeft=4;spacingRight=4;overflow=hidden;rotatable=0;points=[[0,0.5],[1,0.5]];portConstraint=eastwest;whiteSpace=wrap;html=1;" vertex="1" parent="Agw1DdUP6BiHVhbd0GuQ-1">
          <mxGeometry y="178" width="240" height="222" as="geometry" />
        </mxCell>
        <mxCell id="Agw1DdUP6BiHVhbd0GuQ-9" value="Professor" style="swimlane;fontStyle=1;align=center;verticalAlign=top;childLayout=stackLayout;horizontal=1;startSize=26;horizontalStack=0;resizeParent=1;resizeParentMax=0;resizeLast=0;collapsible=1;marginBottom=0;whiteSpace=wrap;html=1;" vertex="1" parent="1">
          <mxGeometry x="150" y="560" width="160" height="34" as="geometry" />
        </mxCell>
        <mxCell id="Agw1DdUP6BiHVhbd0GuQ-11" value="" style="line;strokeWidth=1;fillColor=none;align=left;verticalAlign=middle;spacingTop=-1;spacingLeft=3;spacingRight=3;rotatable=0;labelPosition=right;points=[];portConstraint=eastwest;strokeColor=inherit;" vertex="1" parent="Agw1DdUP6BiHVhbd0GuQ-9">
          <mxGeometry y="26" width="160" height="8" as="geometry" />
        </mxCell>
        <mxCell id="Agw1DdUP6BiHVhbd0GuQ-13" value="AlunoGraduacao" style="swimlane;fontStyle=1;align=center;verticalAlign=top;childLayout=stackLayout;horizontal=1;startSize=26;horizontalStack=0;resizeParent=1;resizeParentMax=0;resizeLast=0;collapsible=1;marginBottom=0;whiteSpace=wrap;html=1;" vertex="1" parent="1">
          <mxGeometry x="334" y="560" width="160" height="34" as="geometry" />
        </mxCell>
        <mxCell id="Agw1DdUP6BiHVhbd0GuQ-15" value="" style="line;strokeWidth=1;fillColor=none;align=left;verticalAlign=middle;spacingTop=-1;spacingLeft=3;spacingRight=3;rotatable=0;labelPosition=right;points=[];portConstraint=eastwest;strokeColor=inherit;" vertex="1" parent="Agw1DdUP6BiHVhbd0GuQ-13">
          <mxGeometry y="26" width="160" height="8" as="geometry" />
        </mxCell>
        <mxCell id="Agw1DdUP6BiHVhbd0GuQ-17" value="AlunoPosGraduacao" style="swimlane;fontStyle=1;align=center;verticalAlign=top;childLayout=stackLayout;horizontal=1;startSize=26;horizontalStack=0;resizeParent=1;resizeParentMax=0;resizeLast=0;collapsible=1;marginBottom=0;whiteSpace=wrap;html=1;" vertex="1" parent="1">
          <mxGeometry x="520" y="560" width="160" height="34" as="geometry" />
        </mxCell>
        <mxCell id="Agw1DdUP6BiHVhbd0GuQ-19" value="" style="line;strokeWidth=1;fillColor=none;align=left;verticalAlign=middle;spacingTop=-1;spacingLeft=3;spacingRight=3;rotatable=0;labelPosition=right;points=[];portConstraint=eastwest;strokeColor=inherit;" vertex="1" parent="Agw1DdUP6BiHVhbd0GuQ-17">
          <mxGeometry y="26" width="160" height="8" as="geometry" />
        </mxCell>
        <mxCell id="Agw1DdUP6BiHVhbd0GuQ-22" value="" style="endArrow=classic;html=1;rounded=0;exitX=0.447;exitY=1.01;exitDx=0;exitDy=0;exitPerimeter=0;entryX=0.397;entryY=-0.046;entryDx=0;entryDy=0;entryPerimeter=0;" edge="1" parent="1">
          <mxGeometry width="50" height="50" relative="1" as="geometry">
            <mxPoint x="401.28" y="480" as="sourcePoint" />
            <mxPoint x="213.51999999999998" y="555.02" as="targetPoint" />
          </mxGeometry>
        </mxCell>
        <mxCell id="Agw1DdUP6BiHVhbd0GuQ-23" value="" style="endArrow=classic;html=1;rounded=0;exitX=0.477;exitY=1.016;exitDx=0;exitDy=0;exitPerimeter=0;entryX=0.517;entryY=-0.009;entryDx=0;entryDy=0;entryPerimeter=0;" edge="1" parent="1" target="Agw1DdUP6BiHVhbd0GuQ-13">
          <mxGeometry width="50" height="50" relative="1" as="geometry">
            <mxPoint x="400" y="480.002" as="sourcePoint" />
            <mxPoint x="405.52" y="556.45" as="targetPoint" />
          </mxGeometry>
        </mxCell>
        <mxCell id="Agw1DdUP6BiHVhbd0GuQ-24" value="" style="endArrow=classic;html=1;rounded=0;exitX=0.448;exitY=1.008;exitDx=0;exitDy=0;exitPerimeter=0;entryX=0.5;entryY=0;entryDx=0;entryDy=0;" edge="1" parent="1" source="Agw1DdUP6BiHVhbd0GuQ-4" target="Agw1DdUP6BiHVhbd0GuQ-17">
          <mxGeometry width="50" height="50" relative="1" as="geometry">
            <mxPoint x="788" y="550" as="sourcePoint" />
            <mxPoint x="590" y="630" as="targetPoint" />
          </mxGeometry>
        </mxCell>
        <mxCell id="Agw1DdUP6BiHVhbd0GuQ-26" value="Emprestimo" style="swimlane;fontStyle=0;childLayout=stackLayout;horizontal=1;startSize=26;fillColor=none;horizontalStack=0;resizeParent=1;resizeParentMax=0;resizeLast=0;collapsible=1;marginBottom=0;whiteSpace=wrap;html=1;" vertex="1" parent="1">
          <mxGeometry x="607" y="80" width="220" height="176" as="geometry" />
        </mxCell>
        <mxCell id="Agw1DdUP6BiHVhbd0GuQ-27" value="- codigo: int&lt;br&gt;- exemplar: Exemplar&lt;br&gt;- usuario: Usuario&lt;br&gt;- dataEmprestimo: LocalDate&lt;br&gt;- dataDevolucaoPrevista: LocalDate&lt;br&gt;- dataDevolucaoReal: LocalDate&lt;br&gt;- status: StatusEmprestimo" style="text;strokeColor=none;fillColor=none;align=left;verticalAlign=top;spacingLeft=4;spacingRight=4;overflow=hidden;rotatable=0;points=[[0,0.5],[1,0.5]];portConstraint=eastwest;whiteSpace=wrap;html=1;" vertex="1" parent="Agw1DdUP6BiHVhbd0GuQ-26">
          <mxGeometry y="26" width="220" height="124" as="geometry" />
        </mxCell>
        <mxCell id="Agw1DdUP6BiHVhbd0GuQ-28" value="+ finalizar(): void" style="text;strokeColor=none;fillColor=none;align=left;verticalAlign=top;spacingLeft=4;spacingRight=4;overflow=hidden;rotatable=0;points=[[0,0.5],[1,0.5]];portConstraint=eastwest;whiteSpace=wrap;html=1;" vertex="1" parent="Agw1DdUP6BiHVhbd0GuQ-26">
          <mxGeometry y="150" width="220" height="26" as="geometry" />
        </mxCell>
        <mxCell id="Agw1DdUP6BiHVhbd0GuQ-30" value="Reserva" style="swimlane;fontStyle=0;childLayout=stackLayout;horizontal=1;startSize=26;fillColor=none;horizontalStack=0;resizeParent=1;resizeParentMax=0;resizeLast=0;collapsible=1;marginBottom=0;whiteSpace=wrap;html=1;" vertex="1" parent="1">
          <mxGeometry x="607" y="-150" width="220" height="110" as="geometry" />
        </mxCell>
        <mxCell id="Agw1DdUP6BiHVhbd0GuQ-31" value="- codigo: int&lt;br&gt;- usuario: Usuario&lt;br&gt;- livro: Livro&lt;br&gt;- dataReserva: LocalDate&lt;br&gt;- ativa: boolean" style="text;strokeColor=none;fillColor=none;align=left;verticalAlign=top;spacingLeft=4;spacingRight=4;overflow=hidden;rotatable=0;points=[[0,0.5],[1,0.5]];portConstraint=eastwest;whiteSpace=wrap;html=1;" vertex="1" parent="Agw1DdUP6BiHVhbd0GuQ-30">
          <mxGeometry y="26" width="220" height="84" as="geometry" />
        </mxCell>
        <mxCell id="Agw1DdUP6BiHVhbd0GuQ-45" style="edgeStyle=orthogonalEdgeStyle;rounded=0;orthogonalLoop=1;jettySize=auto;html=1;exitX=0.5;exitY=0;exitDx=0;exitDy=0;" edge="1" parent="1" source="Agw1DdUP6BiHVhbd0GuQ-33" target="Agw1DdUP6BiHVhbd0GuQ-37">
          <mxGeometry relative="1" as="geometry" />
        </mxCell>
        <mxCell id="Agw1DdUP6BiHVhbd0GuQ-33" value="Livro" style="swimlane;fontStyle=0;childLayout=stackLayout;horizontal=1;startSize=26;fillColor=none;horizontalStack=0;resizeParent=1;resizeParentMax=0;resizeLast=0;collapsible=1;marginBottom=0;whiteSpace=wrap;html=1;" vertex="1" parent="1">
          <mxGeometry x="40" y="-170" width="220" height="150" as="geometry" />
        </mxCell>
        <mxCell id="Agw1DdUP6BiHVhbd0GuQ-34" value="- codigo: int&lt;br&gt;- titulo: String&lt;br&gt;- editora: String&lt;br&gt;- autores: String&lt;br&gt;- edicao: String&lt;br&gt;- anoPublicacao: int&lt;br&gt;- emprestado: boolean&lt;br&gt;- reservadoPor: Usuario" style="text;strokeColor=none;fillColor=none;align=left;verticalAlign=top;spacingLeft=4;spacingRight=4;overflow=hidden;rotatable=0;points=[[0,0.5],[1,0.5]];portConstraint=eastwest;whiteSpace=wrap;html=1;" vertex="1" parent="Agw1DdUP6BiHVhbd0GuQ-33">
          <mxGeometry y="26" width="220" height="124" as="geometry" />
        </mxCell>
        <mxCell id="Agw1DdUP6BiHVhbd0GuQ-36" value="Exemplar" style="swimlane;fontStyle=0;childLayout=stackLayout;horizontal=1;startSize=26;fillColor=none;horizontalStack=0;resizeParent=1;resizeParentMax=0;resizeLast=0;collapsible=1;marginBottom=0;whiteSpace=wrap;html=1;" vertex="1" parent="1">
          <mxGeometry x="294" y="-320" width="220" height="100" as="geometry" />
        </mxCell>
        <mxCell id="Agw1DdUP6BiHVhbd0GuQ-37" value="- codigo: int&lt;br&gt;- livro: Livro&lt;br&gt;- status: StatusExemplar&lt;br&gt;- reservadoPor: Usuario" style="text;strokeColor=none;fillColor=none;align=left;verticalAlign=top;spacingLeft=4;spacingRight=4;overflow=hidden;rotatable=0;points=[[0,0.5],[1,0.5]];portConstraint=eastwest;whiteSpace=wrap;html=1;" vertex="1" parent="Agw1DdUP6BiHVhbd0GuQ-36">
          <mxGeometry y="26" width="220" height="74" as="geometry" />
        </mxCell>
        <mxCell id="Agw1DdUP6BiHVhbd0GuQ-40" value="1" style="text;html=1;align=center;verticalAlign=middle;resizable=0;points=[];autosize=1;strokeColor=none;fillColor=none;" vertex="1" parent="1">
          <mxGeometry x="405" y="28" width="30" height="30" as="geometry" />
        </mxCell>
        <mxCell id="Agw1DdUP6BiHVhbd0GuQ-41" value="...*" style="text;html=1;align=center;verticalAlign=middle;resizable=0;points=[];autosize=1;strokeColor=none;fillColor=none;" vertex="1" parent="1">
          <mxGeometry x="690" y="28" width="40" height="30" as="geometry" />
        </mxCell>
        <mxCell id="Agw1DdUP6BiHVhbd0GuQ-42" style="edgeStyle=orthogonalEdgeStyle;rounded=0;orthogonalLoop=1;jettySize=auto;html=1;entryX=0;entryY=0.5;entryDx=0;entryDy=0;" edge="1" parent="1" source="Agw1DdUP6BiHVhbd0GuQ-1" target="Agw1DdUP6BiHVhbd0GuQ-31">
          <mxGeometry relative="1" as="geometry" />
        </mxCell>
        <mxCell id="Agw1DdUP6BiHVhbd0GuQ-43" value="...*" style="text;html=1;align=center;verticalAlign=middle;resizable=0;points=[];autosize=1;strokeColor=none;fillColor=none;" vertex="1" parent="1">
          <mxGeometry x="560" y="-120" width="40" height="30" as="geometry" />
        </mxCell>
        <mxCell id="Agw1DdUP6BiHVhbd0GuQ-46" value="1" style="text;html=1;align=center;verticalAlign=middle;resizable=0;points=[];autosize=1;strokeColor=none;fillColor=none;" vertex="1" parent="1">
          <mxGeometry x="120" y="-190" width="30" height="30" as="geometry" />
        </mxCell>
        <mxCell id="Agw1DdUP6BiHVhbd0GuQ-47" value="...*" style="text;html=1;align=center;verticalAlign=middle;resizable=0;points=[];autosize=1;strokeColor=none;fillColor=none;" vertex="1" parent="1">
          <mxGeometry x="250" y="-285" width="40" height="30" as="geometry" />
        </mxCell>
        <mxCell id="Agw1DdUP6BiHVhbd0GuQ-48" style="edgeStyle=orthogonalEdgeStyle;rounded=0;orthogonalLoop=1;jettySize=auto;html=1;exitX=1;exitY=0.5;exitDx=0;exitDy=0;entryX=0;entryY=0.5;entryDx=0;entryDy=0;" edge="1" parent="1" source="Agw1DdUP6BiHVhbd0GuQ-34" target="Agw1DdUP6BiHVhbd0GuQ-31">
          <mxGeometry relative="1" as="geometry">
            <Array as="points">
              <mxPoint x="260" y="-90" />
              <mxPoint x="607" y="-90" />
            </Array>
          </mxGeometry>
        </mxCell>
        <mxCell id="Agw1DdUP6BiHVhbd0GuQ-49" value="1" style="text;html=1;align=center;verticalAlign=middle;resizable=0;points=[];autosize=1;strokeColor=none;fillColor=none;" vertex="1" parent="1">
          <mxGeometry x="264" y="-100" width="30" height="30" as="geometry" />
        </mxCell>
        <mxCell id="Agw1DdUP6BiHVhbd0GuQ-50" value="...*" style="text;html=1;align=center;verticalAlign=middle;resizable=0;points=[];autosize=1;strokeColor=none;fillColor=none;" vertex="1" parent="1">
          <mxGeometry x="560" y="-90" width="40" height="30" as="geometry" />
        </mxCell>
        <mxCell id="Agw1DdUP6BiHVhbd0GuQ-51" style="edgeStyle=orthogonalEdgeStyle;rounded=0;orthogonalLoop=1;jettySize=auto;html=1;entryX=1.006;entryY=0.213;entryDx=0;entryDy=0;entryPerimeter=0;" edge="1" parent="1" source="Agw1DdUP6BiHVhbd0GuQ-36" target="Agw1DdUP6BiHVhbd0GuQ-34">
          <mxGeometry relative="1" as="geometry" />
        </mxCell>
        <mxCell id="Agw1DdUP6BiHVhbd0GuQ-52" value="1" style="text;html=1;align=center;verticalAlign=middle;resizable=0;points=[];autosize=1;strokeColor=none;fillColor=none;" vertex="1" parent="1">
          <mxGeometry x="270" y="-150" width="30" height="30" as="geometry" />
        </mxCell>
        <mxCell id="Agw1DdUP6BiHVhbd0GuQ-53" value="1" style="text;html=1;align=center;verticalAlign=middle;resizable=0;points=[];autosize=1;strokeColor=none;fillColor=none;" vertex="1" parent="1">
          <mxGeometry x="370" y="-220" width="30" height="30" as="geometry" />
        </mxCell>
        <mxCell id="Agw1DdUP6BiHVhbd0GuQ-55" style="edgeStyle=orthogonalEdgeStyle;rounded=0;orthogonalLoop=1;jettySize=auto;html=1;entryX=1;entryY=0.5;entryDx=0;entryDy=0;" edge="1" parent="1" source="Agw1DdUP6BiHVhbd0GuQ-37" target="Agw1DdUP6BiHVhbd0GuQ-27">
          <mxGeometry relative="1" as="geometry">
            <Array as="points">
              <mxPoint x="910" y="-257" />
              <mxPoint x="910" y="168" />
            </Array>
          </mxGeometry>
        </mxCell>
        <mxCell id="Agw1DdUP6BiHVhbd0GuQ-56" value="1" style="text;html=1;align=center;verticalAlign=middle;resizable=0;points=[];autosize=1;strokeColor=none;fillColor=none;" vertex="1" parent="1">
          <mxGeometry x="520" y="-290" width="30" height="30" as="geometry" />
        </mxCell>
        <mxCell id="Agw1DdUP6BiHVhbd0GuQ-57" value="1" style="text;html=1;align=center;verticalAlign=middle;resizable=0;points=[];autosize=1;strokeColor=none;fillColor=none;" vertex="1" parent="1">
          <mxGeometry x="840" y="130" width="30" height="30" as="geometry" />
        </mxCell>
      </root>
    </mxGraphModel>
  </diagram>
</mxfile>
